<svg xmlns="http://www.w3.org/2000/svg" width="24" height="24" viewBox="0 0 24 24"><path d="m 5,4 v 2 2 l -1,7 3,5 7,-1.609375 3.990234,-4.138672 2.539063,-3.878906 L 19,7 15,6 13,8 12.539062,10.371094 10.431641,11.605469 9,14 7.4785156,11 7,8.5039062 9,7 V 4 Z m 12.005859,4.4726562 1.101563,0.203125 0.214844,0.8496094 -0.220704,0.8828124 -0.986328,0.130859 -2.511718,3.175782 -4.378907,3.482422 -0.166015,0.671875 L 9.1367188,18.115234 8.4296875,17.511719 8.8378906,16.970703 8.6464844,16.267578 9.2675781,15.744141 9.875,15.958984 l 4.09375,-3.238281 2.4375,-2.7480468 -0.06445,-0.9082031 z"/></svg>
