<svg xmlns="http://www.w3.org/2000/svg" width="24" height="24" viewBox="0 0 24 24"><path d="m 3,3 v 2 l 3,-1 2,1 4,-1 3,1 4,-1 2,1 V 3 L 19,2 15,3 12,2 8,3 6,2 Z M 6,5 3,6 v 1 l 3,-1 2,1 4,-1 3,1 4,-1 2,1 V 6 L 19,5 15,6 12,5 8,6 Z M 6,7 3,8 v 1 l 3,-1 2,1 4,-1 3,1 4,-1 2,1 V 8 L 19,7 15,8 12,7 8,8 Z M 6,9 3,10 V 21 H 21 V 10 L 19,9 15,10 12,9 8,10 Z m 3.9316406,5.626953 c 0.5522854,0 1.0000004,0.447715 1.0000004,1 0,0.552285 -0.447715,1 -1.0000004,1 -0.5522847,0 -1,-0.447715 -1,-1 0,-0.552285 0.4477153,-1 1,-1 z m -4.6777344,0.220703 c 0.5522847,0 1,0.447715 1,1 0,0.552285 -0.4477153,1 -1,1 -0.5522847,0 -1,-0.447715 -1,-1 0,-0.552285 0.4477153,-1 1,-1 z m 12.1874998,0.08399 c 0.552285,0 1,0.447715 1,1 0,0.552285 -0.447715,1 -1,1 -0.552285,0 -1,-0.447715 -1,-1 0,-0.552285 0.447715,-1 1,-1 z m -3.71289,0.169921 c 0.552285,0 1,0.447715 1,1 0,0.552285 -0.447715,1 -1,1 -0.552285,0 -1,-0.447715 -1,-1 0,-0.552285 0.447715,-1 1,-1 z m -1.492188,2.1875 c 0.552285,0 1,0.447715 1,1 0,0.552285 -0.447715,1 -1,1 -0.552285,0 -1,-0.447715 -1,-1 0,-0.552285 0.447715,-1 1,-1 z m -4.3203124,0.08398 c 0.5522847,0 1,0.447715 1,1 0,0.552285 -0.4477153,1 -1,1 -0.5522847,0 -1,-0.447715 -1,-1 0,-0.552285 0.4477153,-1 1,-1 z m 7.0507814,0.271484 c 0.552285,0 1,0.447715 1,1 0,0.552285 -0.447715,1 -1,1 -0.552285,0 -1,-0.447715 -1,-1 0,-0.552285 0.447715,-1 1,-1 z m 3.898437,0.185547 c 0.552285,0 1,0.447715 1,1 0,0.552285 -0.447715,1 -1,1 -0.552285,0 -1,-0.447715 -1,-1 0,-0.552285 0.447715,-1 1,-1 z"/></svg>
