<svg width="108" height="26" fill="none" xmlns="http://www.w3.org/2000/svg" viewBox="0 0 108 26"><path d="M10.3 11.538c1.44 0 2.16.693 2.16 2.08 0 .72-.2 1.306-.6 1.76-.667.986-1.747 1.846-3.24 2.58-1.493.733-2.76 1.14-3.8 1.22-.373.026-.573-.08-.6-.32-.027-.107.007-.174.1-.2a.857.857 0 01.22-.04c.613-.054 1.4-.347 2.36-.88 1.787-.96 3.093-1.947 3.92-2.96.347-.48.52-.94.52-1.38 0-.44-.213-.66-.64-.66-.347 0-.813.146-1.4.44-1.253.586-2.573 1.606-3.96 3.06-1.387 1.453-2.293 2.873-2.72 4.26a4.21 4.21 0 00-.2 1.26c0 .413.173.806.52 1.18.347.373.88.56 1.6.56.8 0 1.72-.214 2.76-.64 3.013-1.227 5.333-3.08 6.96-5.56.16-.214.307-.254.44-.12.107.053.16.12.16.2 0 .08-.04.173-.12.28a14.281 14.281 0 01-3.04 3.56c-2.373 2.026-4.68 3.04-6.92 3.04-1.92 0-3.267-.574-4.04-1.72-.293-.454-.44-1-.44-1.64 0-.64.173-1.4.52-2.28.667-1.52 2.093-3.08 4.28-4.68 2.187-1.6 3.92-2.4 5.2-2.4zM23.06 20.858c.08 0 .12.08.12.24 0 .16-.187.426-.56.8l-.4.6c-.72 1.093-1.247 1.733-1.58 1.92-.333.186-.6.28-.8.28-.2 0-.507-.047-.92-.14-.413-.094-.627-.194-.64-.3a2.565 2.565 0 01-.02-.32c0-1.307 1.187-4.254 3.56-8.84-.64.08-1.127.12-1.46.12-.333 0-.613-.1-.84-.3a.991.991 0 01-.34-.78c0-.32.28-.614.84-.88.56-.267.993-.4 1.3-.4.307 0 .567.126.78.38.213.253.347.38.4.38h.12c.56-1.014 1.067-1.947 1.52-2.8.453-.854.68-1.407.68-1.66 0-.254-.04-.447-.12-.58.16-.774.82-1.76 1.98-2.96 1.16-1.2 2.22-1.8 3.18-1.8.427 0 .947.166 1.56.5.613.333.88.766.8 1.3-.187-.134-.36-.2-.52-.2-1.813 0-4.307 2.72-7.48 8.16.88-.08 1.8-.2 2.76-.36 3.2-.4 5.013-.6 5.44-.6.427 0 .7.006.82.02a.82.82 0 01.32.1.435.435 0 01.18.16c.027.16-.28.346-.92.56-1.547.506-4.68 1.013-9.4 1.52-2.24 4.053-3.36 6.546-3.36 7.48 0 .453.193.62.58.5.387-.12.727-.367 1.02-.74.693-.907 1.16-1.36 1.4-1.36z M38.7 1.818c.773-.854 1.507-1.28 2.2-1.28.32 0 .573.08.76.24.187.16.28.32.28.48 0 .16-.08.32-.24.48-.16.16-.467.406-.92.74a9.555 9.555 0 00-1.08.9c-1.28 1.253-1.92 2.333-1.92 3.24 0 .4.087.733.26 1 .173.266.153.433-.06.5-.213.066-.413-.02-.6-.26-.24-.16-.36-.694-.36-1.6 0-1.2.213-2.2.64-3 .053-.08.14-.22.26-.42.12-.2.22-.34.3-.42h-1.5c-.813 0-2.427-.107-4.84-.32-2.413-.214-4.233-.32-5.46-.32-1.227 0-2.173.08-2.84.24-2.533.346-4.713 1.046-6.54 2.1-1.827 1.053-2.913 2.38-3.26 3.98-.053.16-.08.353-.08.58 0 .226.073.5.22.82.147.32.327.573.54.76.213.186.54.413.98.68.44.266.733.46.88.58.147.12.173.22.08.3a.432.432 0 01-.28.12c-.093 0-.193-.014-.3-.04a4.723 4.723 0 01-2.3-1.5c-.627-.734-.94-1.347-.94-1.84 0-.494.067-.914.2-1.26 0-.294.013-.507.04-.64.4-1.894 1.613-3.36 3.64-4.4 2.427-1.254 5.387-1.88 8.88-1.88 1.92 0 4.28.226 7.08.68 2.8.453 4.893.706 6.28.76zM38.86 12.098c.667 0 1.067.213 1.2.64.053.24.02.473-.1.7-.12.226-.207.406-.26.54-.053.133-.093.24-.12.32-.133.266-.267.52-.4.76-1.52 3.04-2.32 4.973-2.4 5.8-.027.24-.04.546-.04.92 0 .373.107.68.32.92.373.426.907.453 1.6.08.693-.374 1.66-1.12 2.9-2.24s2.247-2.214 3.02-3.28c.107-.134.227-.167.36-.1.133.066.2.133.2.2 0 .066-.027.14-.08.22-.4.72-1.12 1.64-2.16 2.76-1.707 1.84-3.133 2.973-4.28 3.4-.667.24-1.227.36-1.68.36-1.067 0-1.773-.507-2.12-1.52a2.505 2.505 0 01-.08-.68c0-.934.427-2.347 1.28-4.24-.133.293-.653.96-1.56 2-.24.266-.427.266-.56 0a.5.5 0 01-.04-.22c0-.094.053-.207.16-.34 1.307-1.627 2.333-3 3.08-4.12-.053-.134-.027-.307.08-.52.533-1.494 1-2.28 1.4-2.36h.28zM42.02 6.778l-.32 1.28c0 .24-.173.626-.52 1.16-.347.533-.613.8-.8.8-1.147 0-1.72-.28-1.72-.84 0-.107.573-.6 1.72-1.48l.68-.52c.427-.374.693-.56.8-.56.107 0 .16.053.16.16z M49.94 12.018l.52-.04c2.053-.187 3.3-.28 3.74-.28.44 0 .66.066.66.2 0 .16-.313.326-.94.5-.627.173-2.153.393-4.58.66-.133.24-.293.52-.48.84-.4.64-.613 1.026-.64 1.16-1.52 3.04-2.32 4.973-2.4 5.8-.027.24-.04.546-.04.92 0 .373.107.68.32.92.373.426.907.453 1.6.08.693-.374 1.66-1.12 2.9-2.24s2.247-2.214 3.02-3.28c.107-.134.24-.16.4-.08.4.186-.293 1.24-2.08 3.16-1.707 1.84-3.133 2.973-4.28 3.4-.667.24-1.227.36-1.68.36-1.067 0-1.773-.507-2.12-1.52a2.505 2.505 0 01-.08-.68c0-.934.427-2.347 1.28-4.24-.133.293-.653.96-1.56 2-.24.266-.427.266-.56 0a.5.5 0 01-.04-.22c0-.094.053-.207.16-.34 1.307-1.627 2.333-3 3.08-4.12 0-.027.293-.587.88-1.68-.267.053-.54.08-.82.08-.28 0-.487-.087-.62-.26-.133-.174-.147-.38-.04-.62.187-.427.893-.667 2.12-.72.027-.054.08-.08.16-.08l2-3.72c.107-.214.227-.434.36-.66.133-.227.233-.4.3-.52.067-.12.14-.247.22-.38a1.55 1.55 0 01.2-.28l.16-.16c.107-.16.42-.24.94-.24s.873.146 1.06.44c.08.106.12.286.12.54 0 .253-.093.533-.28.84-.187.306-.387.526-.6.66-.213.133-.36.28-.44.44l-1.92 3.36z M64.22 11.818c.613 0 .92.326.92.98 0 .653-.307 1.553-.92 2.7-.613 1.146-1.067 2.08-1.36 2.8-.507 1.226-.76 2.206-.76 2.94 0 .733.107 1.22.32 1.46.4.426.947.446 1.64.06.693-.387 1.66-1.134 2.9-2.24 1.24-1.107 2.233-2.194 2.98-3.26.107-.134.233-.167.38-.1.147.066.22.133.22.2 0 .066-.027.14-.08.22-.4.72-1.12 1.64-2.16 2.76-1.04 1.12-2.04 2.02-3 2.7-.96.68-1.907 1.02-2.84 1.02-.907-.027-1.547-.234-1.92-.62-.373-.387-.56-.874-.56-1.46 0-.587.053-1.154.16-1.7.107-.547.307-1.18.6-1.9.48-1.147.9-2.04 1.26-2.68.36-.64.54-1.06.54-1.26 0-.2-.107-.3-.32-.3-.427 0-1.24.52-2.44 1.56-.827.773-2.047 2.233-3.66 4.38-1.613 2.146-2.527 3.286-2.74 3.42-.96.48-1.56.72-1.8.72s-.36-.04-.36-.12c0-.08.027-.194.08-.34a864.583 864.583 0 002.3-6.48c.547-1.56.88-2.5 1-2.82.12-.32.2-.594.24-.82.04-.227.087-.42.14-.58.053-.16.153-.34.3-.54a.74.74 0 01.58-.32c.24-.014.547.013.92.08.373.066.56.233.56.5 0 .186-.147.593-.44 1.22-.293.626-1.133 2.78-2.52 6.46.96-1.174 2.173-2.527 3.64-4.06 1.467-1.534 2.707-2.7 3.72-3.5 1.013-.72 1.84-1.08 2.48-1.08z M78.7 11.538c1.44 0 2.16.693 2.16 2.08 0 .72-.2 1.306-.6 1.76-.667.986-1.747 1.846-3.24 2.58-1.493.733-2.76 1.14-3.8 1.22-.373.026-.573-.08-.6-.32-.027-.107.007-.174.1-.2a.856.856 0 01.22-.04c.613-.054 1.4-.347 2.36-.88 1.787-.96 3.093-1.947 3.92-2.96.347-.48.52-.94.52-1.38 0-.44-.213-.66-.64-.66-.347 0-.813.146-1.4.44-1.253.586-2.573 1.606-3.96 3.06-1.387 1.453-2.293 2.873-2.72 4.26-.133.426-.2.846-.2 1.26 0 .413.173.806.52 1.18.347.373.88.56 1.6.56.8 0 1.72-.214 2.76-.64 3.013-1.227 5.333-3.08 6.96-5.56.16-.214.307-.254.44-.12.107.053.16.12.16.2 0 .08-.04.173-.12.28a14.283 14.283 0 01-3.04 3.56c-2.373 2.026-4.68 3.04-6.92 3.04-1.92 0-3.267-.574-4.04-1.72-.293-.454-.44-1-.44-1.64 0-.64.173-1.4.52-2.28.667-1.52 2.093-3.08 4.28-4.68 2.187-1.6 3.92-2.4 5.2-2.4z M82.62 23.578c-.347.4-.42.72-.22.96.2.24.427.36.68.36.253 0 .513-.04.78-.12 1.147-.347 2.26-1.034 3.34-2.06 1.08-1.027 1.62-2.074 1.62-3.14 0-.587-.653-1.227-1.96-1.92-.613-.32-.96-.507-1.04-.56-.72-.48-1.173-.96-1.36-1.44-.373.64-.973 1.56-1.8 2.76-.187.213-.36.26-.52.14-.16-.12-.173-.287-.04-.5 1.093-1.494 1.813-2.747 2.16-3.76.187-1.467 1.253-2.787 3.2-3.96 1.947-1.174 3.72-1.76 5.32-1.76 1.013 0 1.727.18 2.14.54.413.36.62.713.62 1.06 0 .346-.1.746-.3 1.2-.2.453-.607.88-1.22 1.28-.16.106-.293.08-.4-.08-.053-.16.06-.38.34-.66s.46-.66.54-1.14c.08-.48-.133-.774-.64-.88h-.24c-1.04 0-2.34.386-3.9 1.16-1.56.773-2.78 1.773-3.66 3-.347.453-.52.913-.52 1.38 0 .466.32.886.96 1.26.267.16.72.413 1.36.76.64.346 1.093.6 1.36.76.267.16.587.413.96.76.373.346.573.666.6.96.133.8-.24 1.68-1.12 2.64-1.253 1.386-3.12 2.36-5.6 2.92-.56.133-1.127.2-1.7.2s-.967-.214-1.18-.64c-.08-.107-.12-.274-.12-.5 0-.227.213-.594.64-1.1.4-.4 1.04-.787 1.92-1.16.08-.027.147-.014.2.04.053.053.067.12.04.2-.027.08-.167.173-.42.28-.253.106-.527.36-.82.76zM94.46 23.578c-.347.4-.42.72-.22.96.2.24.427.36.68.36.253 0 .513-.04.78-.12 1.147-.347 2.26-1.034 3.34-2.06 1.08-1.027 1.62-2.074 1.62-3.14 0-.587-.653-1.227-1.96-1.92-.613-.32-.96-.507-1.04-.56-.72-.48-1.173-.96-1.36-1.44-.373.64-.973 1.56-1.8 2.76-.187.213-.36.26-.52.14-.16-.12-.173-.287-.04-.5 1.093-1.494 1.813-2.747 2.16-3.76.187-1.467 1.253-2.787 3.2-3.96 1.947-1.174 3.72-1.76 5.32-1.76 1.013 0 1.727.18 2.14.54.413.36.62.713.62 1.06 0 .346-.1.746-.3 1.2-.2.453-.607.88-1.22 1.28-.16.106-.293.08-.4-.08-.053-.16.06-.38.34-.66s.46-.66.54-1.14c.08-.48-.133-.774-.64-.88h-.24c-1.04 0-2.34.386-3.9 1.16-1.56.773-2.78 1.773-3.66 3-.347.453-.52.913-.52 1.38 0 .466.32.886.96 1.26.267.16.72.413 1.36.76.64.346 1.093.6 1.36.76.267.16.587.413.96.76.373.346.573.666.6.96.133.8-.24 1.68-1.12 2.64-1.253 1.386-3.12 2.36-5.6 2.92-.56.133-1.127.2-1.7.2s-.967-.214-1.18-.64c-.08-.107-.12-.274-.12-.5 0-.227.213-.594.64-1.1.4-.4 1.04-.787 1.92-1.16.08-.027.147-.014.2.04.053.053.067.12.04.2-.027.08-.167.173-.42.28-.253.106-.527.36-.82.76z"/></svg>