<?xml version="1.0" encoding="UTF-8" standalone="no"?>
<svg
   xmlns:dc="http://purl.org/dc/elements/1.1/"
   xmlns:cc="http://creativecommons.org/ns#"
   xmlns:rdf="http://www.w3.org/1999/02/22-rdf-syntax-ns#"
   xmlns:svg="http://www.w3.org/2000/svg"
   xmlns="http://www.w3.org/2000/svg"
   xmlns:sodipodi="http://sodipodi.sourceforge.net/DTD/sodipodi-0.dtd"
   xmlns:inkscape="http://www.inkscape.org/namespaces/inkscape"
   width="24"
   height="24"
   viewBox="0 0 24 24"
   version="1.1"
   id="svg8713"
   sodipodi:docname="water-24px.svg"
   inkscape:version="0.92.4 (5da689c313, 2019-01-14)">
  <metadata
     id="metadata8719">
    <rdf:RDF>
      <cc:Work
         rdf:about="">
        <dc:format>image/svg+xml</dc:format>
        <dc:type
           rdf:resource="http://purl.org/dc/dcmitype/StillImage" />
        <dc:title></dc:title>
      </cc:Work>
    </rdf:RDF>
  </metadata>
  <defs
     id="defs8717" />
  <sodipodi:namedview
     pagecolor="#ffffff"
     bordercolor="#666666"
     borderopacity="1"
     objecttolerance="10"
     gridtolerance="10"
     guidetolerance="10"
     inkscape:pageopacity="0"
     inkscape:pageshadow="2"
     inkscape:window-width="1366"
     inkscape:window-height="705"
     id="namedview8715"
     showgrid="false"
     inkscape:zoom="19.666667"
     inkscape:cx="9.0136226"
     inkscape:cy="8.8152261"
     inkscape:window-x="-8"
     inkscape:window-y="-8"
     inkscape:window-maximized="1"
     inkscape:current-layer="svg8713" />
  <path
     fill="none"
     d="M24 0H0v24h24V0zm0 0H0v24h24V0zM0 24h24V0H0v24z"
     id="path8709" />
  <path
     d="M 17.66,8 12,2.35 6.34,8 C 4.78,9.56 4,11.64 4,13.64 c 0,2 0.78,4.11 2.34,5.67 1.56,1.56 3.61,2.35 5.66,2.35 2.05,0 4.1,-0.79 5.66,-2.35 C 19.22,17.75 20,15.64 20,13.64 20,11.64 19.22,9.56 17.66,8 Z"
     id="path8711"
     inkscape:connector-curvature="0"
     sodipodi:nodetypes="cccsssssc"
     style="opacity:1" />
</svg>
