<?xml version="1.0" encoding="UTF-8" standalone="no"?>
<svg
   xmlns:dc="http://purl.org/dc/elements/1.1/"
   xmlns:cc="http://creativecommons.org/ns#"
   xmlns:rdf="http://www.w3.org/1999/02/22-rdf-syntax-ns#"
   xmlns:svg="http://www.w3.org/2000/svg"
   xmlns="http://www.w3.org/2000/svg"
   xmlns:sodipodi="http://sodipodi.sourceforge.net/DTD/sodipodi-0.dtd"
   xmlns:inkscape="http://www.inkscape.org/namespaces/inkscape"
   width="24"
   height="24"
   viewBox="0 0 24 24"
   version="1.1"
   id="svg8636"
   sodipodi:docname="weight-scale.svg"
   inkscape:version="0.92.4 (5da689c313, 2019-01-14)">
  <metadata
     id="metadata8642">
    <rdf:RDF>
      <cc:Work
         rdf:about="">
        <dc:format>image/svg+xml</dc:format>
        <dc:type
           rdf:resource="http://purl.org/dc/dcmitype/StillImage" />
        <dc:title></dc:title>
      </cc:Work>
    </rdf:RDF>
  </metadata>
  <defs
     id="defs8640" />
  <sodipodi:namedview
     pagecolor="#ffffff"
     bordercolor="#666666"
     borderopacity="1"
     objecttolerance="10"
     gridtolerance="10"
     guidetolerance="10"
     inkscape:pageopacity="0"
     inkscape:pageshadow="2"
     inkscape:window-width="1366"
     inkscape:window-height="705"
     id="namedview8638"
     showgrid="true"
     inkscape:zoom="22.333333"
     inkscape:cx="11.55031"
     inkscape:cy="9.1868717"
     inkscape:window-x="-8"
     inkscape:window-y="-8"
     inkscape:window-maximized="1"
     inkscape:current-layer="svg8636">
    <inkscape:grid
       type="xygrid"
       id="grid8665" />
  </sodipodi:namedview>
  <path
     d="M 20,3 H 19 17 7 5 4 C 2.9,3 1.8635618,3.9084943 2,5 l 2,16 c 0.1364382,1.091506 0.9,2 2,2 h 12 c 1.1,0 1.863562,-0.908494 2,-2 L 22,5 C 22.136438,3.9084943 21.1,3 20,3 Z M 18,21 H 6 L 4,5 h 16 z"
     id="path8632"
     inkscape:connector-curvature="0"
     sodipodi:nodetypes="sccccssssssssccccc" />
  <path
     fill="none"
     d="M0 0h24v24H0z"
     id="path8634" />
  <path
     d="m 7,6 v 5 c 0,0 3.313374,0.776119 5,0.776119 C 13.686626,11.776119 17,11 17,11 V 6 C 17,6 13.68034,6.641791 12,6.641791 10.31966,6.641791 7,6 7,6 Z M 8,7 C 8,7 10.649613,7.641791 12,7.641791 13.350387,7.641791 16,7 16,7 v 3 c 0,0 -2.6418,0.776119 -4,0.776119 C 10.6418,10.776119 8,10 8,10 Z"
     id="rect8667"
     inkscape:connector-curvature="0"
     sodipodi:nodetypes="ccaccaccaccacc" />
</svg>
