<svg xmlns="http://www.w3.org/2000/svg" width="24" height="24" viewBox="0 0 24 24"><path d="M 20,3 H 19 17 7 5 4 C 2.9,3 1.8635618,3.9084943 2,5 l 2,16 c 0.1364382,1.091506 0.9,2 2,2 h 12 c 1.1,0 1.863562,-0.908494 2,-2 L 22,5 C 22.136438,3.9084943 21.1,3 20,3 Z M 18,21 H 6 L 4,5 h 16 z"/><path d="m 7,6 v 5 c 0,0 3.313374,0.776119 5,0.776119 C 13.686626,11.776119 17,11 17,11 V 6 C 17,6 13.68034,6.641791 12,6.641791 10.31966,6.641791 7,6 7,6 Z M 8,7 C 8,7 10.649613,7.641791 12,7.641791 13.350387,7.641791 16,7 16,7 v 3 c 0,0 -2.6418,0.776119 -4,0.776119 C 10.6418,10.776119 8,10 8,10 Z"/></svg>
